# xmcd
#
# Track frame offsets:
# 150
# 17039
# 33062
# 54756
# 68218
# 86890
# 107062
# 132874
# 149771
# 165792
# 195725
# 211465
#
# Disc length: 3090 seconds
#
#
# Revision: 2
# Processed by: cddbd v1.4PL0 Copyright (c) Steve Scherf et al.
# Submitted via: FreeRIP 2.40 
#
DISCID=a10c100c
DTITLE=伍佰＆China Blue - 淚\\橋
DYEAR=2003
DGENRE=Blues
TTITLE0=淚\\橋
TTITLE1=頑石的飛行
TTITLE2=海浪
TTITLE3=生命之歌
TTITLE4=沒有頭
TTITLE5=敵人
TTITLE6=破碎的收音機
TTITLE7=晚風
TTITLE8=活下去
TTITLE9=街角的薔薇
TTITLE10=再度重相逢
TTITLE11=花不香
EXTD=
EXTT0=
EXTT1=
EXTT2=
EXTT3=
EXTT4=
EXTT5=
EXTT6=
EXTT7=
EXTT8=
EXTT9=
EXTT10=
EXTT11=
PLAYORDER=
